<svg id="svg" version="1.1" xmlns="http://www.w3.org/2000/svg" xmlns:xlink="http://www.w3.org/1999/xlink" width="400" height="509.44309927360774" viewBox="0, 0, 400,509.44309927360774"><g id="svgg"><path id="path0" d="M208.632 0.852 C 208.837 1.183,208.646 1.268,207.500 1.360 C 207.225 1.382,206.761 1.720,206.470 2.111 C 206.178 2.501,205.638 2.771,205.270 2.711 C 204.887 2.647,204.647 2.827,204.710 3.130 C 204.770 3.421,204.646 3.552,204.434 3.421 C 203.918 3.102,202.019 5.184,202.258 5.807 C 202.361 6.076,202.179 6.399,201.853 6.524 C 200.986 6.857,200.993 14.400,201.860 14.400 C 202.183 14.400,202.334 14.583,202.196 14.807 C 202.058 15.030,201.777 15.109,201.572 14.983 C 201.368 14.856,201.200 14.924,201.200 15.134 C 201.200 15.343,201.489 15.625,201.842 15.761 C 202.205 15.900,202.385 16.263,202.256 16.599 C 202.131 16.924,202.225 17.148,202.464 17.095 C 202.704 17.043,202.991 17.250,203.102 17.556 C 203.242 17.942,203.136 18.010,202.752 17.779 C 202.301 17.507,202.291 17.559,202.697 18.060 C 202.970 18.397,203.075 18.792,202.930 18.937 C 202.785 19.082,202.947 19.200,203.291 19.200 C 203.634 19.200,204.028 19.495,204.166 19.857 C 204.377 20.406,204.318 20.430,203.809 20.008 C 203.374 19.647,203.200 19.634,203.200 19.964 C 203.200 20.217,203.457 20.524,203.771 20.644 C 204.085 20.765,204.278 21.195,204.200 21.600 C 204.122 22.005,204.329 22.441,204.661 22.568 C 205.092 22.734,205.193 23.123,205.014 23.936 C 204.835 24.752,204.960 25.231,205.459 25.636 C 206.053 26.118,206.104 26.118,205.815 25.638 C 205.575 25.239,205.623 25.167,205.981 25.388 C 206.319 25.597,206.406 26.199,206.246 27.204 C 206.071 28.300,206.174 28.847,206.628 29.224 C 207.016 29.545,207.166 30.083,207.024 30.646 C 206.874 31.245,207.035 31.730,207.498 32.076 C 207.899 32.376,208.196 33.114,208.192 33.800 C 208.187 34.460,208.361 35.245,208.578 35.545 C 208.795 35.844,208.918 36.724,208.851 37.499 C 208.783 38.283,208.940 39.040,209.205 39.203 C 209.466 39.364,209.680 40.150,209.680 40.948 C 209.680 41.869,209.869 42.400,210.197 42.400 C 210.482 42.400,210.818 42.670,210.945 43.000 C 211.071 43.330,211.013 43.600,210.815 43.600 C 210.606 43.600,210.600 44.101,210.800 44.800 C 210.989 45.460,211.039 46.000,210.910 46.000 C 210.781 46.000,211.002 46.360,211.400 46.800 C 212.061 47.531,211.955 47.793,211.063 47.635 C 210.877 47.602,210.809 47.806,210.913 48.088 C 211.016 48.369,211.319 48.549,211.587 48.488 C 211.856 48.426,211.994 48.606,211.895 48.888 C 211.796 49.169,211.865 49.805,212.048 50.300 C 212.249 50.846,212.227 51.200,211.990 51.200 C 211.776 51.200,211.603 51.515,211.606 51.900 C 211.611 52.498,211.669 52.513,212.000 52.000 C 212.335 51.481,212.389 51.490,212.394 52.067 C 212.397 52.434,212.505 53.064,212.633 53.467 C 212.846 54.138,212.812 54.134,212.233 53.424 C 211.885 52.996,211.600 52.863,211.600 53.127 C 211.600 53.392,211.929 53.889,212.330 54.233 C 212.873 54.697,213.033 55.315,212.952 56.629 C 212.893 57.603,213.013 58.400,213.219 58.400 C 213.426 58.400,213.531 58.805,213.452 59.300 C 213.373 59.795,213.465 60.650,213.657 61.200 C 213.987 62.150,213.974 62.161,213.402 61.424 C 212.949 60.839,212.800 60.795,212.800 61.244 C 212.800 61.572,213.012 62.052,213.271 62.311 C 213.702 62.742,213.898 64.352,214.037 68.600 C 214.066 69.480,214.259 70.560,214.467 71.000 C 214.838 71.787,214.834 71.787,214.222 71.024 C 213.643 70.300,213.602 70.410,213.628 72.624 C 213.648 74.321,213.754 74.772,214.000 74.200 C 214.189 73.760,214.370 73.490,214.402 73.600 C 214.708 74.639,214.637 75.237,214.162 75.632 C 213.821 75.915,213.626 76.747,213.667 77.749 L 213.734 79.400 213.891 77.900 C 214.199 74.964,214.622 76.463,214.570 80.300 C 214.508 84.858,214.432 85.349,214.000 84.000 C 213.737 83.180,213.678 83.324,213.668 84.800 C 213.660 86.069,213.748 86.364,213.968 85.801 C 214.235 85.118,214.308 85.191,214.471 86.301 C 214.576 87.015,214.529 87.600,214.368 87.600 C 214.207 87.600,214.169 87.960,214.284 88.400 C 214.399 88.840,214.337 89.200,214.147 89.200 C 213.956 89.200,213.769 90.325,213.731 91.700 C 213.694 93.075,213.552 95.190,213.418 96.400 C 213.283 97.610,213.130 99.336,213.078 100.237 C 213.026 101.145,212.676 102.181,212.292 102.565 C 211.536 103.321,211.363 105.006,212.001 105.401 C 212.243 105.550,212.264 105.917,212.055 106.324 C 211.864 106.696,211.797 107.250,211.906 107.556 C 212.027 107.897,211.928 108.003,211.649 107.830 C 211.041 107.454,210.602 108.679,211.120 109.305 C 211.408 109.652,211.302 110.269,210.765 111.371 C 209.900 113.148,209.853 113.338,210.358 113.026 C 210.555 112.904,210.819 113.074,210.946 113.402 C 211.103 113.811,210.919 114.000,210.364 114.000 C 209.918 114.000,209.662 114.176,209.795 114.392 C 209.928 114.607,209.831 115.169,209.579 115.640 C 209.258 116.239,209.253 116.415,209.561 116.224 C 210.081 115.903,209.968 117.100,209.395 118.000 C 209.184 118.330,208.987 119.095,208.956 119.700 C 208.925 120.305,208.855 120.890,208.800 121.000 C 208.745 121.110,208.655 121.380,208.600 121.600 C 208.545 121.820,208.455 122.090,208.400 122.200 C 208.345 122.310,208.278 122.595,208.250 122.832 C 208.222 123.070,207.851 123.520,207.424 123.832 C 206.996 124.145,206.837 124.400,207.068 124.400 C 207.305 124.400,207.403 124.852,207.291 125.437 C 207.165 126.096,206.985 126.299,206.796 125.994 C 206.342 125.258,206.068 126.028,206.137 127.850 C 206.199 129.460,205.591 130.627,204.978 130.076 C 204.810 129.924,204.809 130.037,204.976 130.327 C 205.161 130.646,204.989 131.079,204.540 131.428 C 203.823 131.984,203.823 131.994,204.555 131.737 C 205.100 131.546,205.253 131.628,205.105 132.036 C 204.992 132.346,204.698 132.555,204.450 132.500 C 204.184 132.441,204.000 132.965,204.000 133.780 C 204.000 134.626,203.754 135.298,203.364 135.516 C 203.014 135.712,202.699 136.036,202.664 136.236 C 202.629 136.436,202.465 136.555,202.300 136.500 C 202.135 136.445,202.000 136.951,202.000 137.624 C 202.000 138.496,201.856 138.761,201.500 138.547 C 201.160 138.343,201.176 138.463,201.549 138.923 C 201.907 139.364,201.942 139.600,201.649 139.600 C 201.402 139.600,201.200 139.859,201.200 140.176 C 201.200 140.493,200.992 140.881,200.738 141.038 C 200.433 141.227,200.386 141.146,200.600 140.800 C 200.818 140.447,200.768 140.373,200.446 140.572 C 200.183 140.734,200.071 141.195,200.198 141.594 C 200.457 142.411,198.679 145.336,198.200 144.883 C 198.035 144.727,198.025 145.005,198.177 145.500 C 198.386 146.178,198.293 146.400,197.803 146.400 C 197.446 146.400,197.259 146.572,197.389 146.782 C 197.851 147.529,197.112 149.207,196.222 149.430 C 195.549 149.599,195.333 149.946,195.333 150.862 C 195.333 151.527,195.114 152.206,194.846 152.372 C 194.577 152.538,194.412 152.927,194.479 153.237 C 194.556 153.596,194.327 153.753,193.846 153.670 C 193.290 153.574,193.157 153.711,193.341 154.191 C 193.483 154.560,193.425 154.739,193.207 154.604 C 192.996 154.474,192.706 154.870,192.562 155.484 C 192.418 156.098,191.917 156.931,191.450 157.335 C 190.982 157.739,190.825 157.953,191.100 157.811 C 191.375 157.669,191.600 157.743,191.600 157.976 C 191.600 158.209,191.319 158.400,190.976 158.400 C 190.633 158.400,190.463 158.579,190.598 158.797 C 190.876 159.247,190.226 160.600,189.731 160.600 C 189.552 160.600,189.457 160.825,189.520 161.100 C 189.643 161.636,188.978 161.798,188.699 161.300 C 188.607 161.135,188.592 161.241,188.666 161.535 C 188.741 161.829,188.396 162.408,187.901 162.822 C 187.405 163.235,187.147 163.579,187.327 163.587 C 187.963 163.613,185.936 166.000,185.273 166.006 C 184.692 166.011,184.682 166.065,185.200 166.400 C 185.530 166.613,185.665 166.813,185.500 166.844 C 185.335 166.875,185.020 166.945,184.800 167.000 C 184.580 167.055,184.220 167.123,184.000 167.150 C 183.780 167.178,183.600 167.402,183.600 167.649 C 183.600 167.959,183.785 167.944,184.200 167.600 C 184.691 167.192,184.800 167.220,184.800 167.751 C 184.800 168.108,184.665 168.379,184.500 168.353 C 183.313 168.165,182.800 168.485,182.800 169.413 C 182.800 169.969,182.530 170.529,182.200 170.655 C 181.870 170.782,181.600 171.136,181.600 171.443 C 181.600 171.983,181.136 172.164,180.100 172.030 C 179.825 171.994,179.600 172.253,179.600 172.606 C 179.600 172.961,179.792 173.129,180.030 172.982 C 180.266 172.836,180.222 173.095,179.933 173.558 C 179.644 174.021,179.249 174.400,179.055 174.400 C 178.861 174.400,178.926 174.130,179.200 173.800 C 179.474 173.470,179.561 173.200,179.393 173.200 C 179.063 173.200,178.243 174.157,177.553 175.348 C 177.208 175.944,177.230 176.031,177.660 175.773 C 177.957 175.595,177.750 175.930,177.200 176.518 C 176.650 177.105,175.908 177.589,175.550 177.593 C 175.143 177.597,174.806 178.072,174.647 178.864 C 174.508 179.559,174.284 180.018,174.150 179.883 C 173.875 179.609,172.800 180.559,172.800 181.075 C 172.800 181.258,172.440 181.632,172.000 181.907 C 171.560 182.182,171.200 182.744,171.200 183.157 C 171.200 183.830,169.955 184.576,169.070 184.433 C 168.889 184.404,168.860 184.574,169.007 184.811 C 169.358 185.379,167.602 186.886,166.903 186.618 C 166.603 186.503,166.468 186.587,166.603 186.805 C 166.737 187.022,166.657 187.200,166.424 187.200 C 166.191 187.200,166.000 187.378,166.000 187.595 C 166.000 188.206,164.698 189.584,164.333 189.359 C 164.155 189.249,164.116 189.438,164.247 189.779 C 164.425 190.242,164.221 190.400,163.443 190.400 C 162.630 190.400,162.399 190.598,162.394 191.300 C 162.389 192.031,162.314 192.087,161.994 191.600 C 161.665 191.099,161.559 191.148,161.355 191.896 C 161.220 192.388,160.969 192.705,160.798 192.599 C 160.627 192.493,160.194 192.855,159.835 193.403 C 159.475 193.952,158.826 194.400,158.391 194.400 C 157.956 194.400,157.600 194.574,157.600 194.787 C 157.600 195.001,157.915 195.074,158.300 194.950 C 158.835 194.778,158.872 194.816,158.456 195.113 C 158.156 195.327,157.616 195.426,157.256 195.334 C 156.884 195.239,156.370 195.538,156.070 196.025 C 155.779 196.497,155.734 196.764,155.970 196.618 C 156.207 196.472,156.400 196.543,156.400 196.776 C 156.400 197.009,156.209 197.200,155.976 197.200 C 155.743 197.200,155.682 197.408,155.839 197.663 C 156.034 197.979,155.856 198.056,155.276 197.904 C 154.671 197.746,154.358 197.901,154.185 198.447 C 154.052 198.867,153.794 199.120,153.613 199.008 C 153.432 198.896,153.165 199.114,153.020 199.491 C 152.795 200.079,152.704 200.093,152.385 199.589 C 152.075 199.099,152.011 199.122,152.006 199.724 C 152.003 200.122,151.818 200.335,151.597 200.198 C 151.198 199.952,150.359 201.569,150.637 202.046 C 150.716 202.182,150.239 202.230,149.576 202.153 C 148.835 202.066,148.292 202.216,148.167 202.542 C 147.925 203.173,145.164 203.373,145.304 202.749 C 145.357 202.515,144.995 202.166,144.500 201.974 C 143.978 201.772,143.600 201.776,143.600 201.984 C 143.600 202.180,143.915 202.424,144.300 202.524 C 144.891 202.679,144.898 202.714,144.349 202.754 C 143.465 202.817,142.597 201.773,143.216 201.390 C 143.511 201.208,143.352 200.949,142.767 200.655 C 142.270 200.405,141.793 199.930,141.706 199.600 C 141.604 199.207,141.766 199.268,142.175 199.776 C 142.535 200.224,142.800 200.339,142.800 200.048 C 142.800 199.510,141.749 198.294,141.451 198.486 C 141.353 198.549,140.894 198.119,140.431 197.530 C 139.652 196.540,139.642 196.447,140.295 196.277 C 140.953 196.105,140.952 196.090,140.276 196.046 C 139.878 196.021,139.665 195.819,139.802 195.597 C 139.939 195.375,139.815 194.931,139.526 194.611 C 138.272 193.220,138.000 192.801,138.000 192.260 C 138.000 191.944,137.726 191.580,137.390 191.452 C 136.959 191.286,136.856 190.917,137.039 190.188 C 137.225 189.446,137.089 188.989,136.548 188.550 C 136.137 188.215,136.025 188.055,136.300 188.194 C 136.575 188.333,136.800 188.257,136.800 188.024 C 136.800 187.791,136.500 187.600,136.133 187.600 C 135.767 187.600,135.585 187.482,135.730 187.337 C 135.875 187.192,135.793 186.832,135.548 186.537 C 135.218 186.139,135.225 186.000,135.575 186.000 C 135.835 186.000,135.934 185.817,135.796 185.593 C 135.658 185.370,135.388 185.284,135.197 185.402 C 135.006 185.520,134.936 185.145,135.040 184.568 C 135.175 183.827,134.974 183.298,134.354 182.760 C 133.872 182.342,133.591 182.000,133.729 182.000 C 133.867 182.000,133.805 181.540,133.591 180.977 C 133.334 180.301,133.337 180.038,133.601 180.201 C 133.821 180.336,134.000 180.257,134.000 180.024 C 134.000 179.791,133.749 179.600,133.442 179.600 C 133.039 179.600,132.914 179.153,132.993 177.993 C 133.053 177.110,132.916 176.272,132.689 176.131 C 132.451 175.984,132.397 176.072,132.562 176.338 C 132.719 176.592,132.668 176.800,132.449 176.800 C 132.214 176.800,132.147 176.204,132.286 175.350 C 132.465 174.247,132.363 173.811,131.860 173.530 C 131.497 173.327,131.200 172.979,131.200 172.757 C 131.200 172.534,131.380 172.464,131.600 172.600 C 131.820 172.736,132.000 172.672,132.000 172.457 C 132.000 172.242,131.816 172.005,131.591 171.930 C 131.366 171.855,131.087 171.268,130.970 170.625 C 130.854 169.982,130.650 169.281,130.517 169.066 C 130.384 168.850,130.483 168.804,130.738 168.962 C 131.006 169.127,131.200 169.004,131.200 168.666 C 131.200 168.347,130.915 167.976,130.566 167.842 C 130.041 167.641,129.974 167.158,130.176 165.046 C 130.375 162.971,130.306 162.450,129.810 162.259 C 129.080 161.979,128.984 160.003,129.700 159.994 C 130.058 159.989,130.041 159.887,129.642 159.634 C 129.193 159.350,129.086 157.617,129.091 150.744 C 129.097 143.203,129.012 142.047,128.361 140.831 C 127.807 139.798,127.734 139.321,128.068 138.918 C 128.313 138.622,128.398 138.265,128.257 138.124 C 128.116 137.982,128.000 138.077,128.000 138.333 C 128.000 138.590,127.801 138.800,127.557 138.800 C 127.314 138.800,127.212 138.545,127.332 138.233 C 127.452 137.921,127.291 137.567,126.975 137.446 C 126.659 137.324,126.400 137.029,126.400 136.789 C 126.400 136.549,126.593 136.472,126.830 136.618 C 127.066 136.764,127.022 136.505,126.733 136.042 C 126.444 135.579,126.049 135.200,125.855 135.200 C 125.661 135.200,125.743 135.490,126.037 135.844 C 126.331 136.199,125.678 135.891,124.586 135.161 C 123.494 134.430,122.540 133.690,122.467 133.516 C 122.393 133.342,122.078 133.200,121.767 133.200 C 121.455 133.200,121.197 132.975,121.194 132.700 C 121.190 132.361,121.051 132.393,120.763 132.800 C 120.444 133.252,120.289 133.276,120.136 132.900 C 119.896 132.307,118.400 132.221,118.400 132.800 C 118.400 133.020,118.209 133.200,117.976 133.200 C 117.743 133.200,117.688 132.975,117.853 132.700 C 118.026 132.413,117.839 132.456,117.415 132.800 C 116.575 133.483,116.427 133.476,115.937 132.734 C 115.656 132.307,115.502 132.341,115.168 132.908 C 114.939 133.298,114.574 133.508,114.358 133.374 C 114.142 133.240,113.668 133.372,113.306 133.666 C 112.836 134.047,112.733 134.057,112.947 133.700 C 113.362 133.009,112.762 133.096,111.800 133.867 C 111.150 134.387,111.131 134.462,111.700 134.266 C 112.085 134.134,112.400 134.199,112.400 134.413 C 112.400 134.626,112.220 134.800,112.000 134.800 C 111.148 134.800,110.990 134.875,110.680 135.428 C 110.504 135.743,110.099 136.000,109.780 136.000 C 109.457 136.000,109.200 136.373,109.200 136.843 C 109.200 137.425,109.016 137.615,108.605 137.457 C 108.261 137.325,108.050 137.434,108.105 137.714 C 108.157 137.981,107.945 138.145,107.632 138.077 C 107.142 137.972,107.142 138.050,107.632 138.654 C 107.995 139.101,108.019 139.245,107.700 139.053 C 107.380 138.861,107.200 138.993,107.200 139.419 C 107.200 139.830,106.983 140.002,106.632 139.868 C 106.320 139.748,105.663 139.999,105.171 140.425 C 104.680 140.851,104.485 141.200,104.739 141.200 C 104.992 141.200,105.200 141.374,105.200 141.587 C 105.200 141.801,104.929 141.871,104.599 141.744 C 104.169 141.579,103.927 141.864,103.752 142.741 C 103.617 143.416,103.302 143.931,103.053 143.884 C 102.804 143.838,102.645 144.025,102.700 144.300 C 102.755 144.575,102.570 144.800,102.289 144.800 C 102.008 144.800,100.883 145.630,99.789 146.643 C 98.695 147.657,98.160 148.242,98.600 147.943 C 99.334 147.445,99.355 147.457,98.851 148.100 C 98.549 148.485,98.035 148.800,97.708 148.800 C 97.354 148.800,97.204 149.034,97.337 149.380 C 97.493 149.787,97.367 149.886,96.914 149.712 C 96.508 149.556,96.368 149.625,96.537 149.898 C 96.684 150.136,96.579 150.423,96.302 150.534 C 95.913 150.691,95.918 150.744,96.324 150.768 C 97.241 150.824,96.392 151.600,95.414 151.600 C 94.672 151.600,94.519 151.768,94.684 152.400 C 94.806 152.865,94.696 153.200,94.423 153.200 C 94.163 153.200,94.079 152.977,94.235 152.700 C 94.391 152.425,94.131 152.597,93.659 153.083 C 92.748 154.020,92.512 154.625,93.230 154.182 C 93.473 154.031,93.442 154.263,93.158 154.718 C 92.883 155.159,92.445 155.439,92.186 155.339 C 91.927 155.240,91.489 155.701,91.215 156.365 C 90.940 157.029,90.513 157.533,90.267 157.486 C 90.021 157.439,89.757 157.805,89.682 158.300 C 89.603 158.818,89.259 159.203,88.872 159.206 C 88.342 159.211,88.315 159.285,88.743 159.556 C 89.121 159.796,89.151 159.983,88.843 160.174 C 88.599 160.324,88.240 160.349,88.045 160.228 C 87.850 160.107,87.468 160.277,87.196 160.604 C 86.800 161.082,86.810 161.205,87.251 161.225 C 87.553 161.239,87.404 161.410,86.919 161.605 C 86.435 161.800,85.674 162.760,85.229 163.737 C 84.684 164.932,84.187 165.496,83.710 165.457 C 83.261 165.421,83.020 165.657,83.056 166.100 C 83.086 166.485,82.853 166.800,82.538 166.800 C 82.216 166.800,82.016 167.103,82.082 167.491 C 82.147 167.871,81.975 168.186,81.700 168.191 C 81.425 168.196,81.206 168.341,81.214 168.514 C 81.235 168.968,80.133 170.000,79.629 170.000 C 79.393 170.000,79.200 170.191,79.200 170.424 C 79.200 170.657,79.425 170.718,79.700 170.559 C 79.990 170.392,80.060 170.424,79.867 170.636 C 79.683 170.836,79.323 171.008,79.067 171.018 C 78.810 171.028,78.645 171.253,78.700 171.518 C 78.755 171.783,78.626 172.000,78.413 172.000 C 78.199 172.000,78.140 172.300,78.281 172.666 C 78.449 173.105,78.381 173.236,78.080 173.049 C 77.799 172.876,77.524 173.162,77.367 173.791 C 77.206 174.430,76.870 174.774,76.471 174.707 C 76.094 174.644,75.593 175.093,75.251 175.800 C 74.931 176.460,74.321 177.248,73.894 177.551 C 73.274 177.992,73.227 178.171,73.659 178.445 C 74.053 178.694,73.955 178.789,73.300 178.794 C 72.805 178.797,72.400 179.048,72.400 179.351 C 72.400 179.654,72.121 180.133,71.781 180.416 C 71.287 180.826,71.267 180.996,71.681 181.259 C 72.076 181.509,72.082 181.589,71.703 181.594 C 71.430 181.597,70.884 182.275,70.489 183.100 C 70.039 184.043,69.534 184.560,69.129 184.492 C 68.732 184.426,68.508 184.646,68.543 185.069 C 68.574 185.445,68.150 185.983,67.600 186.264 C 67.050 186.546,66.576 187.006,66.546 187.288 C 66.517 187.570,66.472 187.995,66.446 188.232 C 66.421 188.470,65.950 188.906,65.400 189.200 C 64.850 189.494,64.400 189.907,64.400 190.117 C 64.400 190.326,64.670 190.274,65.000 190.000 C 65.864 189.283,65.742 190.148,64.868 190.939 C 64.465 191.303,63.986 191.466,63.804 191.301 C 63.622 191.135,63.579 191.298,63.709 191.662 C 63.848 192.051,63.626 192.614,63.173 193.024 C 62.748 193.409,62.400 193.570,62.400 193.382 C 62.400 192.446,61.614 193.986,61.530 195.086 C 61.460 196.009,61.304 196.252,60.963 195.969 C 60.642 195.703,60.417 195.780,60.251 196.211 C 60.112 196.575,60.176 196.738,60.405 196.597 C 60.622 196.463,60.800 196.453,60.800 196.576 C 60.800 196.913,59.289 198.356,59.117 198.184 C 59.035 198.102,58.939 198.416,58.904 198.883 C 58.869 199.350,58.540 200.017,58.173 200.366 C 57.556 200.953,57.541 200.926,57.975 200.000 C 58.415 199.062,58.406 199.048,57.829 199.767 C 57.371 200.338,57.327 200.671,57.656 201.067 C 57.993 201.474,57.944 201.600,57.449 201.600 C 57.092 201.600,56.800 201.791,56.800 202.024 C 56.800 202.257,56.620 202.336,56.400 202.200 C 56.180 202.064,55.978 202.233,55.950 202.576 C 55.837 203.986,55.741 204.195,55.252 204.090 C 54.971 204.030,54.845 204.149,54.972 204.355 C 55.275 204.844,53.933 207.194,53.349 207.197 C 53.101 207.199,52.651 207.515,52.349 207.900 C 51.851 208.534,51.866 208.549,52.500 208.051 C 53.736 207.082,53.249 207.887,51.580 209.573 C 50.688 210.474,50.061 211.375,50.186 211.577 C 50.311 211.779,50.227 212.060,50.000 212.200 C 49.773 212.340,49.691 212.623,49.817 212.828 C 49.944 213.032,49.786 213.200,49.466 213.200 C 48.907 213.200,48.407 213.961,48.163 215.183 C 47.962 216.190,47.092 217.581,46.783 217.390 C 46.186 217.020,45.215 219.052,45.726 219.605 C 46.093 220.002,46.088 220.054,45.700 219.835 C 45.410 219.671,45.200 219.774,45.200 220.080 C 45.200 220.370,44.833 220.837,44.384 221.117 C 43.936 221.397,43.669 221.788,43.791 221.985 C 43.913 222.183,43.563 222.852,43.013 223.472 C 41.348 225.349,41.302 225.423,41.015 226.733 C 40.862 227.430,40.576 228.000,40.381 228.000 C 40.185 228.000,40.132 228.277,40.262 228.616 C 40.392 228.955,40.341 229.204,40.149 229.169 C 39.375 229.028,39.031 229.232,39.519 229.541 C 39.927 229.800,39.889 229.991,39.342 230.435 C 38.749 230.917,38.696 230.917,38.985 230.438 C 39.210 230.065,39.174 229.969,38.879 230.151 C 38.635 230.302,38.528 230.667,38.641 230.962 C 38.754 231.258,38.318 232.079,37.671 232.787 C 36.968 233.557,36.570 234.363,36.682 234.792 C 36.785 235.187,36.646 235.648,36.373 235.817 C 36.053 236.015,35.978 235.959,36.162 235.662 C 36.319 235.408,36.245 235.200,35.998 235.200 C 35.752 235.200,35.582 235.515,35.621 235.900 C 35.810 237.757,35.573 238.392,34.600 238.636 C 33.779 238.842,33.600 239.130,33.600 240.243 C 33.600 240.990,33.409 241.600,33.176 241.600 C 32.943 241.600,32.881 241.392,33.038 241.138 C 33.215 240.852,33.148 240.785,32.860 240.963 C 32.582 241.135,32.501 241.664,32.658 242.290 C 32.881 243.176,32.812 243.290,32.203 243.057 C 31.632 242.838,31.578 242.892,31.938 243.325 C 32.289 243.748,32.070 244.242,30.955 245.544 C 30.126 246.512,29.617 247.468,29.748 247.809 C 29.885 248.165,29.741 248.400,29.387 248.400 C 29.064 248.400,28.821 248.535,28.847 248.700 C 29.042 249.932,28.742 250.753,28.177 250.536 C 27.687 250.348,27.580 250.543,27.677 251.448 C 27.758 252.205,27.629 252.566,27.300 252.500 C 26.991 252.438,26.800 252.849,26.800 253.576 C 26.800 254.223,26.592 254.881,26.338 255.038 C 26.033 255.227,25.986 255.146,26.200 254.800 C 26.400 254.476,26.366 254.374,26.112 254.531 C 25.885 254.671,25.700 255.245,25.700 255.806 C 25.700 256.367,25.362 257.211,24.950 257.682 C 24.537 258.153,24.395 258.424,24.633 258.286 C 24.872 258.148,25.067 258.305,25.067 258.635 C 25.067 258.965,24.844 259.149,24.572 259.045 C 23.872 258.776,23.532 259.237,24.008 259.810 C 24.289 260.148,24.197 260.461,23.705 260.847 C 23.050 261.361,23.043 261.343,23.600 260.600 C 24.162 259.851,24.154 259.836,23.472 260.372 C 23.060 260.696,22.827 261.260,22.935 261.672 C 23.039 262.072,22.917 262.403,22.663 262.406 C 22.404 262.410,22.464 262.583,22.800 262.800 C 23.155 263.029,23.207 263.190,22.927 263.194 C 22.458 263.200,21.947 264.278,21.644 265.900 C 21.613 266.065,21.396 265.930,21.162 265.600 C 20.835 265.141,20.794 265.266,20.984 266.134 C 21.144 266.864,21.086 267.177,20.821 267.013 C 20.575 266.861,20.506 267.011,20.649 267.384 C 20.781 267.729,20.669 268.276,20.400 268.600 C 20.131 268.924,20.015 269.462,20.143 269.795 C 20.305 270.219,20.119 270.400,19.521 270.400 C 19.051 270.400,18.785 270.518,18.930 270.663 C 19.075 270.808,18.970 271.203,18.697 271.540 C 18.291 272.041,18.301 272.093,18.752 271.821 C 19.136 271.590,19.242 271.658,19.102 272.044 C 18.991 272.350,18.694 272.554,18.442 272.497 C 18.147 272.431,18.069 272.737,18.224 273.354 C 18.367 273.923,18.264 274.437,17.971 274.618 C 17.653 274.815,17.578 274.759,17.762 274.462 C 17.919 274.208,17.844 274.000,17.597 274.000 C 17.334 274.000,17.248 274.321,17.390 274.769 C 17.552 275.277,17.326 275.824,16.722 276.386 C 16.009 277.051,15.927 277.307,16.345 277.566 C 16.766 277.826,16.704 278.058,16.047 278.670 C 15.552 279.131,15.282 279.785,15.378 280.287 C 15.473 280.779,15.217 281.422,14.765 281.832 C 14.288 282.263,14.079 282.818,14.222 283.269 C 14.364 283.717,14.226 284.092,13.868 284.229 C 13.514 284.365,13.280 284.984,13.280 285.786 C 13.280 287.655,12.837 288.866,12.271 288.542 C 12.012 288.393,11.936 288.421,12.101 288.604 C 12.267 288.787,12.148 289.325,11.837 289.800 C 11.525 290.276,11.311 291.255,11.361 291.978 C 11.411 292.700,11.245 293.497,10.993 293.750 C 10.740 294.003,10.514 294.477,10.490 294.805 C 10.393 296.146,10.113 296.883,9.572 297.226 C 9.023 297.573,9.362 297.783,10.200 297.614 C 10.420 297.570,10.196 297.964,9.703 298.490 C 9.018 299.219,8.916 299.556,9.273 299.913 C 9.630 300.270,9.568 300.573,9.009 301.191 C 8.606 301.636,8.425 302.000,8.608 302.000 C 8.790 302.000,8.539 302.427,8.049 302.948 C 7.408 303.630,7.229 304.175,7.408 304.890 C 7.571 305.538,7.438 306.105,7.029 306.514 C 6.307 307.235,6.202 308.000,6.824 308.000 C 7.057 308.000,7.120 307.775,6.965 307.500 C 6.763 307.143,6.842 307.151,7.241 307.527 C 7.718 307.976,7.697 308.130,7.100 308.571 C 6.715 308.855,6.400 309.383,6.400 309.744 C 6.400 310.105,6.175 310.403,5.900 310.406 C 5.538 310.411,5.552 310.509,5.951 310.761 C 6.254 310.953,6.377 311.314,6.224 311.562 C 6.070 311.810,5.796 311.921,5.614 311.809 C 5.432 311.696,5.320 312.312,5.364 313.178 C 5.408 314.043,5.312 314.669,5.151 314.570 C 4.705 314.294,4.438 315.621,4.596 317.325 C 4.693 318.375,4.561 318.917,4.169 319.067 C 3.856 319.187,3.600 319.441,3.600 319.630 C 3.600 319.820,3.872 319.871,4.205 319.743 C 4.637 319.577,4.739 319.694,4.562 320.155 C 4.426 320.510,4.154 320.800,3.957 320.800 C 3.761 320.800,3.594 321.475,3.587 322.300 C 3.580 323.125,3.304 324.158,2.973 324.597 C 2.505 325.216,2.430 325.995,2.637 328.097 C 2.872 330.484,2.823 330.800,2.220 330.800 C 1.656 330.800,1.587 331.027,1.829 332.100 C 1.989 332.815,2.094 333.580,2.062 333.800 C 2.030 334.020,1.944 335.134,1.871 336.276 C 1.797 337.418,1.514 338.622,1.241 338.951 C 0.867 339.401,0.855 339.755,1.191 340.383 C 1.665 341.268,1.396 342.168,0.772 341.783 C 0.568 341.656,0.400 342.013,0.400 342.576 C 0.400 343.139,0.535 343.600,0.700 343.600 C 0.865 343.600,1.000 344.123,1.000 344.762 C 1.000 345.401,0.865 345.840,0.700 345.738 C 0.535 345.636,0.400 350.693,0.400 356.976 C 0.400 364.584,0.538 368.400,0.814 368.400 C 1.100 368.400,1.100 368.640,0.814 369.174 C 0.276 370.179,0.282 371.600,0.824 371.600 C 1.057 371.600,1.144 371.768,1.017 371.972 C 0.891 372.177,0.970 372.458,1.193 372.596 C 1.784 372.961,1.694 373.700,1.100 373.365 C 0.700 373.139,0.700 373.190,1.100 373.621 C 1.375 373.918,1.600 374.850,1.600 375.693 C 1.600 376.722,1.808 377.305,2.234 377.468 C 2.688 377.643,2.733 377.794,2.392 378.005 C 2.058 378.211,2.036 378.520,2.318 379.049 C 2.539 379.462,2.651 380.916,2.568 382.280 C 2.459 384.094,2.577 384.920,3.009 385.352 C 3.334 385.677,3.600 386.136,3.600 386.371 C 3.600 386.607,3.743 386.800,3.918 386.800 C 4.208 386.800,4.419 388.133,4.551 390.800 C 4.578 391.350,4.825 391.944,5.100 392.120 C 5.375 392.296,5.597 392.656,5.594 392.920 C 5.590 393.222,5.427 393.177,5.156 392.800 C 4.810 392.318,4.781 392.358,5.010 393.000 C 5.167 393.440,5.304 394.017,5.314 394.283 C 5.325 394.548,5.573 394.858,5.867 394.970 C 6.160 395.083,6.400 395.371,6.400 395.611 C 6.400 395.851,6.189 395.917,5.932 395.758 C 5.674 395.599,5.809 395.942,6.232 396.522 C 6.654 397.101,7.101 397.581,7.225 397.587 C 7.349 397.594,7.411 398.455,7.363 399.500 C 7.315 400.545,7.361 401.085,7.467 400.700 C 7.572 400.315,7.845 400.000,8.072 400.000 C 8.300 400.000,8.378 400.279,8.247 400.621 C 8.092 401.026,8.170 401.142,8.473 400.955 C 8.789 400.760,8.849 400.897,8.661 401.385 C 8.510 401.779,8.567 402.319,8.788 402.585 C 9.594 403.557,10.479 406.563,9.790 405.992 C 9.282 405.570,9.223 405.595,9.434 406.143 C 9.572 406.505,9.842 406.800,10.033 406.800 C 10.576 406.800,11.477 408.917,11.290 409.752 C 11.197 410.166,11.351 410.646,11.632 410.820 C 11.914 410.994,12.190 411.452,12.247 411.838 C 12.303 412.224,12.624 412.693,12.958 412.881 C 13.293 413.068,13.463 413.492,13.336 413.823 C 13.196 414.188,13.557 414.814,14.252 415.412 C 14.884 415.955,15.243 416.399,15.051 416.400 C 14.859 416.400,14.920 416.662,15.185 416.982 C 15.451 417.303,15.560 417.740,15.428 417.955 C 15.295 418.169,15.398 418.475,15.655 418.634 C 15.967 418.827,16.016 418.749,15.800 418.400 C 15.582 418.047,15.632 417.973,15.954 418.172 C 16.217 418.334,16.323 418.811,16.190 419.231 C 15.997 419.841,16.094 419.942,16.674 419.734 C 17.073 419.590,17.273 419.613,17.117 419.786 C 16.962 419.958,17.277 420.679,17.817 421.387 C 18.870 422.767,19.088 423.425,18.338 422.962 C 18.050 422.784,17.985 422.852,18.166 423.145 C 18.325 423.402,18.653 423.491,18.896 423.341 C 19.182 423.164,19.244 423.309,19.073 423.755 C 18.928 424.133,18.967 424.344,19.159 424.225 C 19.673 423.907,20.526 425.094,20.268 425.767 C 20.112 426.173,20.277 426.301,20.823 426.196 C 21.655 426.035,21.915 426.628,21.128 426.891 C 20.857 426.981,20.770 427.346,20.925 427.749 C 21.073 428.135,21.377 428.338,21.600 428.200 C 21.823 428.062,22.114 428.231,22.246 428.575 C 22.378 428.919,22.772 429.200,23.123 429.200 C 23.618 429.200,23.653 429.307,23.280 429.680 C 23.016 429.944,22.800 430.334,22.800 430.547 C 22.800 430.759,22.914 430.820,23.053 430.681 C 23.507 430.226,24.872 431.236,24.636 431.851 C 24.490 432.230,24.575 432.339,24.873 432.155 C 25.172 431.970,25.254 432.081,25.105 432.471 C 24.978 432.802,25.035 433.326,25.231 433.636 C 25.505 434.069,25.589 434.079,25.594 433.676 C 25.597 433.388,25.796 433.274,26.035 433.422 C 26.274 433.569,26.377 434.044,26.264 434.477 C 26.121 435.025,26.223 435.200,26.600 435.055 C 27.290 434.790,28.162 435.814,27.777 436.437 C 27.493 436.897,29.724 439.200,30.454 439.200 C 30.644 439.200,30.800 439.402,30.800 439.649 C 30.800 439.959,30.615 439.944,30.200 439.600 C 29.797 439.265,29.600 439.247,29.600 439.543 C 29.600 439.786,30.050 440.098,30.600 440.236 C 31.150 440.374,31.600 440.666,31.600 440.886 C 31.600 441.105,32.050 441.639,32.600 442.071 C 33.150 442.504,33.600 443.126,33.600 443.453 C 33.600 443.805,33.791 443.929,34.068 443.758 C 34.385 443.562,34.451 443.689,34.273 444.155 C 34.116 444.563,34.170 444.742,34.405 444.597 C 34.622 444.463,34.800 444.633,34.800 444.976 C 34.800 445.319,35.025 445.555,35.300 445.500 C 35.579 445.444,35.748 445.709,35.682 446.100 C 35.611 446.524,35.817 446.800,36.206 446.800 C 36.559 446.800,36.748 446.961,36.626 447.158 C 36.504 447.355,36.683 447.623,37.023 447.754 C 37.423 447.907,37.542 447.829,37.359 447.534 C 37.179 447.243,37.254 447.186,37.565 447.379 C 37.834 447.545,37.958 447.933,37.840 448.240 C 37.722 448.548,37.799 448.800,38.013 448.800 C 38.226 448.800,38.400 448.598,38.400 448.351 C 38.400 448.026,38.554 448.030,38.959 448.366 C 39.266 448.621,39.444 449.228,39.354 449.715 C 39.265 450.202,39.298 450.375,39.429 450.100 C 39.774 449.374,40.530 449.485,40.247 450.221 C 40.110 450.580,40.177 450.738,40.408 450.595 C 40.628 450.459,41.121 450.900,41.504 451.575 C 41.887 452.249,42.425 452.717,42.700 452.613 C 42.975 452.510,43.200 452.700,43.200 453.036 C 43.200 453.372,43.380 453.536,43.600 453.400 C 43.820 453.264,44.000 453.433,44.000 453.776 C 44.000 454.119,44.251 454.400,44.557 454.400 C 45.182 454.400,45.723 455.478,45.378 456.036 C 45.254 456.236,45.433 456.400,45.776 456.400 C 46.119 456.400,46.400 456.580,46.400 456.800 C 46.400 457.020,46.850 457.200,47.400 457.200 C 47.950 457.200,48.423 457.380,48.450 457.600 C 48.477 457.820,48.523 458.187,48.550 458.415 C 48.620 458.995,49.685 459.595,50.143 459.312 C 50.352 459.182,50.394 459.286,50.236 459.541 C 49.882 460.115,50.825 461.125,51.504 460.899 C 51.777 460.808,52.000 461.029,52.000 461.390 C 52.000 461.752,52.160 461.949,52.355 461.828 C 52.550 461.708,52.809 461.991,52.931 462.457 C 53.098 463.095,53.367 463.250,54.016 463.080 C 54.491 462.956,54.790 462.944,54.680 463.053 C 54.403 463.330,56.131 465.086,56.500 464.902 C 56.665 464.820,56.803 465.078,56.806 465.476 C 56.811 466.090,56.871 466.109,57.200 465.600 C 57.458 465.200,57.590 465.167,57.594 465.500 C 57.597 465.775,57.870 466.000,58.200 466.000 C 58.530 466.000,58.800 466.191,58.800 466.424 C 58.800 466.657,58.575 466.731,58.300 466.589 C 58.025 466.447,58.239 466.688,58.775 467.124 C 59.312 467.560,59.985 467.827,60.270 467.718 C 60.563 467.605,61.098 468.058,61.495 468.757 C 62.255 470.091,62.928 470.444,62.534 469.300 C 62.313 468.659,62.339 468.655,62.846 469.252 C 63.151 469.611,63.940 470.030,64.600 470.185 C 65.708 470.444,65.744 470.505,65.076 470.994 C 64.619 471.328,64.509 471.620,64.776 471.785 C 65.009 471.929,65.200 471.850,65.200 471.610 C 65.200 471.294,65.426 471.293,66.011 471.606 C 66.457 471.845,66.717 472.211,66.588 472.420 C 66.458 472.629,66.614 472.800,66.934 472.800 C 67.253 472.800,67.625 473.089,67.761 473.442 C 67.901 473.808,68.263 473.985,68.603 473.854 C 68.972 473.713,69.200 473.859,69.200 474.236 C 69.200 474.572,69.381 474.735,69.603 474.598 C 69.824 474.461,70.118 474.641,70.254 474.998 C 70.391 475.354,70.759 475.548,71.072 475.428 C 71.403 475.301,71.534 475.383,71.384 475.625 C 71.224 475.884,71.541 475.996,72.222 475.921 C 72.885 475.848,73.392 476.019,73.510 476.356 C 73.644 476.741,73.535 476.809,73.152 476.579 C 72.684 476.297,72.683 476.349,73.149 476.923 C 73.699 477.601,74.629 477.894,74.241 477.267 C 74.128 477.083,74.289 476.933,74.600 476.933 C 74.911 476.933,75.072 477.083,74.959 477.267 C 74.845 477.450,75.111 477.600,75.548 477.600 C 76.553 477.600,77.697 478.714,77.327 479.332 C 77.173 479.590,77.351 479.553,77.723 479.251 C 78.319 478.768,78.400 478.804,78.400 479.551 C 78.400 480.018,78.591 480.400,78.824 480.400 C 79.057 480.400,79.112 480.175,78.947 479.900 C 78.733 479.543,78.836 479.553,79.306 479.934 C 79.668 480.228,80.134 480.364,80.341 480.237 C 80.547 480.109,80.827 480.294,80.963 480.647 C 81.141 481.113,81.037 481.223,80.584 481.049 C 80.211 480.906,80.061 480.975,80.213 481.221 C 80.353 481.447,80.812 481.523,81.234 481.389 C 81.662 481.253,82.000 481.334,82.000 481.573 C 82.000 481.808,82.135 481.971,82.300 481.935 C 83.191 481.744,84.951 482.862,84.386 483.261 C 83.891 483.611,83.901 483.643,84.451 483.469 C 84.809 483.355,85.304 483.464,85.551 483.711 C 85.798 483.958,86.000 484.012,86.000 483.831 C 86.000 483.650,86.273 483.729,86.607 484.006 C 86.941 484.283,87.611 484.530,88.096 484.555 C 88.580 484.580,89.162 484.961,89.388 485.402 C 89.656 485.923,90.189 486.196,90.912 486.183 C 91.640 486.170,91.957 486.334,91.832 486.661 C 91.623 487.206,92.965 487.792,93.569 487.419 C 93.776 487.292,94.075 487.398,94.234 487.655 C 94.415 487.948,94.350 488.016,94.062 487.838 C 93.808 487.681,93.600 487.731,93.600 487.949 C 93.600 488.167,94.095 488.292,94.700 488.226 C 95.331 488.157,96.213 488.430,96.769 488.865 C 97.333 489.306,97.839 489.461,97.979 489.234 C 98.203 488.871,100.800 490.207,100.800 490.685 C 100.800 490.799,100.380 490.617,99.867 490.281 C 99.212 489.851,98.766 489.789,98.367 490.073 C 97.893 490.409,97.901 490.444,98.417 490.282 C 98.756 490.176,99.358 490.327,99.756 490.617 C 100.153 490.907,100.756 491.038,101.097 490.908 C 101.447 490.773,101.936 490.972,102.224 491.365 C 102.694 492.008,103.401 492.292,104.724 492.369 C 105.012 492.386,105.141 492.571,105.012 492.780 C 104.875 493.003,105.375 493.103,106.216 493.021 C 107.314 492.915,107.604 493.013,107.441 493.436 C 107.324 493.741,107.357 493.971,107.514 493.948 C 108.461 493.807,109.614 494.054,109.426 494.358 C 109.185 494.749,110.383 495.350,110.724 495.009 C 110.839 494.894,110.723 494.800,110.467 494.800 C 110.210 494.800,110.000 494.620,110.000 494.400 C 110.000 493.677,110.820 493.981,111.885 495.100 C 112.460 495.705,112.786 495.952,112.610 495.648 C 112.384 495.261,112.454 495.171,112.844 495.348 C 113.150 495.486,113.715 495.711,114.100 495.846 C 114.485 495.982,114.800 496.263,114.800 496.470 C 114.800 496.678,114.980 496.736,115.200 496.600 C 115.420 496.464,115.600 496.554,115.600 496.801 C 115.600 497.106,116.178 497.162,117.405 496.978 C 118.863 496.760,119.169 496.815,118.995 497.268 C 118.855 497.634,119.083 497.851,119.654 497.894 C 120.135 497.930,120.660 498.174,120.822 498.436 C 120.984 498.698,121.845 498.937,122.735 498.966 C 123.626 498.996,124.494 499.160,124.665 499.331 C 124.836 499.502,124.637 499.512,124.222 499.353 C 123.708 499.156,123.558 499.208,123.750 499.519 C 123.920 499.794,124.519 499.876,125.266 499.727 C 126.194 499.541,126.597 499.651,126.886 500.168 C 127.247 500.814,127.307 500.811,127.865 500.128 C 128.192 499.728,128.349 499.620,128.213 499.888 C 128.060 500.192,128.389 500.482,129.084 500.655 C 129.698 500.807,130.440 501.218,130.733 501.566 C 131.217 502.143,131.247 502.141,131.065 501.552 C 130.836 500.810,133.558 501.398,134.441 502.281 C 135.000 502.840,136.084 502.494,135.768 501.858 C 135.643 501.606,135.799 501.715,136.114 502.100 C 136.430 502.485,136.961 502.800,137.295 502.800 C 137.629 502.800,138.123 503.066,138.392 503.391 C 138.748 503.820,139.468 503.937,141.018 503.819 C 142.748 503.688,143.111 503.765,142.934 504.228 C 142.679 504.892,143.812 505.027,144.212 504.381 C 144.386 504.099,144.681 504.131,145.112 504.481 C 145.654 504.919,145.699 504.907,145.400 504.400 C 145.098 503.888,145.143 503.878,145.706 504.334 C 146.068 504.628,146.557 504.750,146.792 504.605 C 147.027 504.459,147.170 504.556,147.110 504.820 C 147.049 505.084,147.250 505.391,147.556 505.502 C 147.917 505.633,148.005 505.532,147.808 505.213 C 147.601 504.878,147.741 504.774,148.253 504.885 C 148.664 504.975,148.955 505.262,148.900 505.524 C 148.845 505.786,148.980 506.000,149.200 506.000 C 149.420 506.000,149.600 505.784,149.600 505.520 C 149.600 505.147,149.707 505.147,150.080 505.520 C 150.655 506.095,152.152 506.169,151.803 505.605 C 151.663 505.378,151.823 505.311,152.179 505.447 C 152.521 505.578,152.800 505.933,152.800 506.236 C 152.800 506.661,153.436 506.760,155.600 506.673 C 157.688 506.589,158.400 506.692,158.400 507.080 C 158.400 507.366,158.805 507.587,159.300 507.572 C 160.161 507.545,160.165 507.528,159.400 507.190 C 158.781 506.916,158.962 506.847,160.200 506.886 C 161.080 506.914,162.002 507.088,162.248 507.274 C 162.495 507.460,163.620 507.633,164.748 507.658 C 165.877 507.684,166.800 507.872,166.800 508.076 C 166.800 508.280,166.592 508.319,166.338 508.162 C 166.063 507.991,165.985 508.051,166.145 508.311 C 166.317 508.589,167.850 508.705,170.407 508.633 C 172.798 508.566,174.400 508.677,174.400 508.910 C 174.400 509.123,174.670 509.074,175.000 508.800 C 175.481 508.401,175.734 508.411,176.277 508.851 C 176.861 509.325,176.905 509.318,176.600 508.800 C 176.308 508.304,176.352 508.285,176.854 508.692 C 177.738 509.407,217.863 509.408,218.104 508.693 C 218.232 508.314,218.423 508.327,218.935 508.749 C 219.447 509.172,219.730 509.190,220.163 508.831 C 220.473 508.574,221.464 508.407,222.365 508.460 C 223.266 508.513,224.219 508.341,224.482 508.078 C 225.074 507.486,225.600 507.461,225.600 508.024 C 225.600 508.257,225.432 508.344,225.228 508.217 C 225.023 508.091,224.734 508.184,224.585 508.424 C 224.408 508.711,224.708 508.816,225.457 508.731 C 226.108 508.656,226.557 508.385,226.500 508.100 C 226.427 507.736,227.213 507.600,229.400 507.600 C 231.050 507.600,232.400 507.432,232.400 507.227 C 232.400 506.827,233.771 506.912,234.881 507.383 C 235.622 507.696,236.528 507.331,236.225 506.841 C 236.122 506.673,236.434 506.569,236.919 506.608 C 237.403 506.647,238.430 506.467,239.200 506.207 C 239.970 505.947,241.680 505.770,243.000 505.812 C 244.846 505.872,245.558 505.726,246.082 505.181 C 246.600 504.643,247.155 504.524,248.382 504.688 C 249.528 504.842,250.000 504.759,250.000 504.404 C 250.000 504.008,250.131 504.011,250.623 504.419 C 251.136 504.845,251.224 504.838,251.123 504.377 C 251.048 504.039,251.394 503.768,252.000 503.690 C 252.550 503.619,253.270 503.447,253.600 503.309 C 254.823 502.795,255.537 502.897,255.333 503.556 C 255.181 504.051,255.277 504.026,255.748 503.450 C 256.085 503.038,256.813 502.700,257.364 502.700 C 257.915 502.700,258.353 502.587,258.336 502.450 C 258.250 501.751,258.489 501.654,259.423 502.009 C 260.180 502.297,260.371 502.276,260.157 501.931 C 259.960 501.611,260.094 501.551,260.585 501.739 C 260.979 501.890,261.504 501.859,261.751 501.669 C 262.756 500.897,263.565 500.822,263.347 501.520 C 263.158 502.127,263.198 502.123,263.722 501.486 C 264.045 501.093,264.690 500.698,265.156 500.608 C 265.622 500.519,266.211 500.317,266.464 500.160 C 266.718 500.003,267.708 499.905,268.664 499.941 C 269.874 499.987,270.371 499.854,270.301 499.503 C 270.244 499.220,270.507 499.051,270.900 499.118 C 271.285 499.182,271.600 499.047,271.600 498.818 C 271.600 498.588,271.791 498.400,272.024 498.400 C 272.257 498.400,272.312 498.625,272.147 498.900 C 271.907 499.299,271.971 499.300,272.460 498.903 C 272.797 498.630,273.221 498.540,273.401 498.703 C 273.581 498.867,273.599 498.775,273.441 498.500 C 273.250 498.169,273.431 498.000,273.976 498.000 C 274.429 498.000,274.800 497.814,274.800 497.586 C 274.800 497.305,275.058 497.310,275.600 497.600 C 276.229 497.936,276.400 497.904,276.400 497.449 C 276.400 497.069,276.743 496.908,277.400 496.980 C 278.031 497.049,278.400 496.889,278.400 496.545 C 278.400 496.245,278.805 495.997,279.300 495.994 C 279.795 495.991,280.465 495.820,280.789 495.615 C 281.178 495.369,281.479 495.405,281.674 495.719 C 281.883 496.058,282.137 495.965,282.552 495.399 C 282.872 494.960,283.267 494.733,283.428 494.894 C 283.589 495.056,283.978 494.875,284.293 494.494 C 284.826 493.847,284.849 493.854,284.627 494.600 C 284.425 495.280,284.503 495.255,285.144 494.438 C 285.619 493.830,286.134 493.566,286.538 493.721 C 286.939 493.875,287.406 493.641,287.789 493.094 C 288.125 492.615,288.400 492.442,288.400 492.711 C 288.400 493.331,289.459 493.351,289.838 492.738 C 290.027 492.433,289.946 492.386,289.600 492.600 C 289.264 492.808,289.173 492.767,289.347 492.486 C 289.495 492.246,289.978 492.119,290.419 492.204 C 290.861 492.289,291.115 492.186,290.985 491.976 C 290.671 491.468,292.342 490.864,293.600 491.031 C 294.150 491.103,294.375 491.066,294.100 490.948 C 293.150 490.540,293.605 490.200,295.100 490.200 C 296.087 490.200,296.566 490.029,296.500 489.700 C 296.403 489.217,297.159 489.014,298.400 489.191 C 298.730 489.238,298.880 489.154,298.733 489.005 C 298.357 488.622,299.867 487.200,300.649 487.200 C 301.210 487.200,301.223 487.295,300.749 487.900 C 300.066 488.771,301.425 487.825,302.330 486.800 C 302.621 486.470,302.745 486.425,302.606 486.700 C 302.467 486.975,302.543 487.200,302.776 487.200 C 303.009 487.200,303.200 487.020,303.200 486.800 C 303.200 486.580,303.549 486.400,303.976 486.400 C 304.403 486.400,304.863 486.222,304.997 486.005 C 305.140 485.774,304.941 485.703,304.521 485.835 C 303.840 486.048,303.840 486.035,304.530 485.594 C 304.932 485.337,305.364 485.230,305.490 485.357 C 305.617 485.484,305.958 485.275,306.248 484.894 C 306.641 484.376,306.778 484.342,306.787 484.762 C 306.795 485.095,307.214 484.850,307.815 484.162 C 308.559 483.310,308.755 483.214,308.551 483.800 C 308.290 484.547,308.338 484.540,309.262 483.700 C 309.806 483.205,310.454 482.800,310.702 482.800 C 310.950 482.800,311.281 482.592,311.438 482.338 C 311.627 482.033,311.546 481.986,311.200 482.200 C 310.854 482.414,310.773 482.367,310.962 482.062 C 311.119 481.808,311.537 481.600,311.892 481.600 C 312.247 481.600,312.897 481.285,313.336 480.900 C 314.104 480.227,314.125 480.231,313.867 481.000 C 313.619 481.739,313.639 481.747,314.139 481.106 C 314.436 480.725,314.796 480.530,314.940 480.673 C 315.083 480.816,315.200 480.633,315.200 480.267 C 315.200 479.664,315.619 479.433,316.228 479.700 C 316.354 479.755,316.633 479.485,316.848 479.100 C 317.063 478.715,317.433 478.400,317.669 478.400 C 317.929 478.400,317.881 478.676,317.549 479.100 C 317.051 479.734,317.066 479.749,317.700 479.251 C 318.085 478.949,318.400 478.454,318.400 478.151 C 318.400 477.848,318.670 477.600,319.000 477.600 C 319.330 477.600,319.600 477.420,319.600 477.200 C 319.600 476.980,319.881 476.800,320.224 476.800 C 320.593 476.800,320.731 476.988,320.562 477.262 C 320.384 477.550,320.452 477.615,320.745 477.434 C 321.002 477.275,321.122 476.997,321.010 476.817 C 320.743 476.385,325.556 473.526,326.043 473.827 C 326.250 473.955,326.394 473.911,326.363 473.730 C 326.205 472.822,326.476 472.461,327.211 472.602 C 327.733 472.703,327.923 472.599,327.745 472.311 C 327.570 472.027,327.694 471.950,328.085 472.100 C 328.493 472.257,328.684 472.116,328.650 471.684 C 328.623 471.325,328.960 470.958,329.400 470.869 C 329.840 470.780,330.318 470.519,330.463 470.290 C 330.608 470.060,331.061 469.847,331.470 469.817 C 332.634 469.731,333.188 469.234,332.915 468.522 C 332.753 468.101,332.822 467.967,333.108 468.143 C 333.352 468.294,333.896 468.049,334.316 467.598 C 334.836 467.040,335.322 466.870,335.840 467.064 C 336.512 467.317,336.536 467.271,336.051 466.675 C 335.472 465.963,335.484 465.954,337.200 465.838 C 337.530 465.815,337.803 465.512,337.806 465.163 C 337.815 464.327,339.075 463.091,339.704 463.303 C 339.977 463.395,340.438 463.184,340.730 462.835 C 341.140 462.343,341.190 462.336,340.953 462.800 C 340.689 463.317,340.741 463.324,341.323 462.851 C 341.695 462.549,342.000 462.054,342.000 461.751 C 342.000 461.249,342.500 461.023,343.312 461.157 C 343.484 461.185,344.024 460.813,344.512 460.331 L 345.400 459.454 344.300 460.136 C 343.695 460.511,343.200 460.641,343.200 460.423 C 343.200 459.887,344.541 459.207,345.674 459.168 C 346.183 459.151,346.374 459.046,346.098 458.934 C 345.336 458.627,345.924 457.999,346.713 458.276 C 347.267 458.471,347.305 458.415,346.910 457.989 C 346.515 457.563,346.656 457.316,347.630 456.724 C 348.343 456.289,348.724 455.800,348.557 455.531 C 348.366 455.222,348.550 455.146,349.124 455.296 C 349.645 455.432,349.939 455.341,349.886 455.059 C 349.839 454.807,350.008 454.639,350.262 454.687 C 350.516 454.735,350.966 454.476,351.262 454.110 C 351.722 453.543,351.713 453.491,351.200 453.753 C 350.853 453.930,350.895 453.817,351.300 453.486 C 351.685 453.170,352.000 452.829,352.000 452.727 C 352.000 452.474,355.249 449.139,356.215 448.400 C 356.957 447.833,356.969 447.844,356.444 448.600 C 356.139 449.040,356.643 448.632,357.564 447.694 C 358.538 446.703,359.120 445.795,358.954 445.526 C 358.766 445.221,358.888 445.148,359.314 445.312 C 359.769 445.486,359.893 445.387,359.735 444.975 C 359.577 444.562,359.701 444.464,360.160 444.640 C 360.657 444.831,360.745 444.722,360.537 444.179 C 360.356 443.708,360.415 443.562,360.711 443.745 C 361.003 443.925,361.100 443.721,360.992 443.157 C 360.900 442.681,360.924 442.391,361.046 442.513 C 361.270 442.736,362.800 441.392,362.800 440.971 C 362.800 440.662,363.880 439.600,364.195 439.600 C 364.334 439.600,364.333 439.825,364.194 440.100 C 364.055 440.375,364.224 440.251,364.570 439.824 C 364.917 439.396,365.200 438.631,365.200 438.124 C 365.200 437.434,365.428 437.198,366.100 437.194 C 366.666 437.190,366.822 437.075,366.521 436.883 C 365.993 436.547,366.325 435.854,367.086 435.705 C 367.385 435.646,367.479 435.876,367.332 436.305 C 367.140 436.862,367.219 436.842,367.733 436.200 C 368.476 435.273,368.600 434.629,367.959 435.026 C 367.716 435.176,367.842 434.802,368.240 434.195 C 368.644 433.579,369.034 433.301,369.122 433.567 C 369.226 433.878,369.463 433.793,369.807 433.322 C 370.212 432.769,370.226 432.468,369.867 432.024 C 369.504 431.576,369.512 431.514,369.900 431.747 C 370.498 432.106,371.473 431.622,370.901 431.250 C 370.685 431.109,370.868 430.650,371.320 430.200 C 371.762 429.760,371.977 429.653,371.800 429.962 C 371.587 430.331,371.629 430.429,371.921 430.249 C 372.165 430.098,372.252 429.681,372.115 429.322 C 371.959 428.915,372.025 428.768,372.289 428.932 C 372.530 429.080,372.823 428.762,372.965 428.197 C 373.103 427.649,373.501 427.200,373.850 427.200 C 374.251 427.200,374.400 426.978,374.255 426.600 C 374.112 426.227,374.258 426.000,374.640 426.000 C 375.056 426.000,375.178 425.761,375.018 425.256 C 374.875 424.806,375.052 424.294,375.468 423.956 C 376.055 423.480,376.105 423.481,375.815 423.962 C 375.584 424.345,375.625 424.432,375.941 424.236 C 376.197 424.078,376.324 423.495,376.223 422.939 C 376.092 422.213,376.190 421.987,376.575 422.135 C 376.921 422.268,377.051 422.104,376.944 421.670 C 376.854 421.302,377.247 420.460,377.819 419.800 C 378.390 419.140,378.727 418.853,378.567 419.162 C 378.382 419.520,378.436 419.625,378.718 419.451 C 378.961 419.301,379.093 418.657,379.013 418.019 C 378.919 417.280,379.071 416.782,379.433 416.643 C 379.745 416.523,380.000 416.130,380.000 415.770 C 380.000 415.366,380.219 415.199,380.573 415.334 C 380.967 415.486,381.101 415.322,381.002 414.809 C 380.923 414.399,381.135 413.957,381.474 413.827 C 381.971 413.636,381.995 413.476,381.596 412.995 C 381.289 412.626,381.262 412.400,381.522 412.400 C 382.278 412.400,383.156 411.208,382.999 410.395 C 382.913 409.950,383.062 409.600,383.338 409.600 C 383.608 409.600,383.859 409.211,383.895 408.736 C 383.931 408.261,384.110 407.766,384.293 407.636 C 384.477 407.506,384.616 407.130,384.602 406.800 C 384.588 406.470,384.897 405.965,385.289 405.677 C 385.680 405.390,385.986 404.940,385.968 404.677 C 385.946 404.332,385.881 404.338,385.735 404.700 C 385.489 405.311,384.800 405.364,384.800 404.771 C 384.800 404.218,385.818 403.200,386.371 403.200 C 386.607 403.200,386.800 403.009,386.800 402.776 C 386.800 402.543,386.607 402.472,386.370 402.618 C 385.904 402.907,386.665 401.419,387.549 400.315 C 387.850 399.938,387.986 399.340,387.850 398.985 C 387.714 398.631,387.878 398.065,388.215 397.728 C 388.578 397.365,388.726 396.796,388.577 396.328 C 388.415 395.816,388.584 395.340,389.064 394.965 C 389.469 394.648,389.620 394.436,389.400 394.494 C 388.464 394.742,389.138 391.681,390.216 390.787 C 390.532 390.524,390.693 390.150,390.572 389.955 C 390.451 389.760,390.538 389.600,390.764 389.600 C 390.990 389.600,391.070 389.328,390.943 388.995 C 390.815 388.662,390.956 388.088,391.255 387.718 C 391.723 387.142,391.715 387.090,391.200 387.353 C 390.870 387.521,391.077 387.284,391.660 386.826 C 392.510 386.156,392.694 385.716,392.590 384.596 C 392.489 383.507,392.608 383.199,393.130 383.194 C 393.713 383.189,393.722 383.133,393.200 382.763 C 392.771 382.460,392.736 382.283,393.078 382.144 C 393.340 382.036,393.465 381.713,393.355 381.426 C 393.244 381.138,393.447 380.610,393.806 380.252 C 394.164 379.893,394.280 379.600,394.064 379.600 C 393.736 379.600,393.710 378.978,393.998 378.000 C 394.030 377.890,394.226 378.160,394.434 378.600 C 394.760 379.290,394.785 379.259,394.617 378.374 C 394.505 377.788,394.695 376.957,395.059 376.438 C 395.561 375.721,395.603 375.324,395.256 374.564 C 394.942 373.874,394.940 373.600,395.251 373.600 C 395.490 373.600,395.580 373.326,395.452 372.991 C 395.323 372.656,395.574 372.026,396.009 371.591 C 396.874 370.726,397.042 370.000,396.376 370.000 C 396.143 370.000,396.081 370.208,396.238 370.462 C 396.419 370.755,396.347 370.815,396.042 370.626 C 395.705 370.417,395.685 370.179,395.977 369.828 C 396.206 369.552,396.260 369.179,396.097 368.999 C 395.933 368.819,396.044 368.813,396.343 368.986 C 396.773 369.235,396.828 369.037,396.607 368.034 C 396.419 367.174,396.525 366.469,396.939 365.838 C 397.393 365.144,397.432 364.792,397.094 364.454 C 396.755 364.115,396.764 364.000,397.128 364.000 C 397.446 364.000,397.530 363.658,397.369 363.019 C 397.226 362.448,397.390 361.502,397.761 360.757 C 398.113 360.053,398.400 358.605,398.400 357.539 C 398.400 356.472,398.580 355.600,398.800 355.600 C 399.020 355.600,399.200 355.409,399.200 355.176 C 399.200 354.943,399.019 354.864,398.799 355.001 C 398.563 355.146,398.455 354.876,398.535 354.345 C 398.611 353.849,398.882 353.373,399.137 353.288 C 399.717 353.094,399.752 351.600,399.176 351.600 C 398.943 351.600,398.881 351.808,399.038 352.062 C 399.219 352.355,399.147 352.415,398.842 352.226 C 398.526 352.031,398.493 351.769,398.747 351.464 C 399.205 350.912,399.200 350.945,399.200 348.376 C 399.200 346.949,399.336 346.437,399.662 346.638 C 399.976 346.832,400.014 346.746,399.781 346.369 C 399.318 345.619,399.255 344.413,399.666 344.159 C 399.850 344.046,399.987 343.648,399.972 343.276 C 399.949 342.725,399.880 342.748,399.600 343.400 C 399.272 344.163,399.255 344.159,399.228 343.300 C 399.213 342.805,399.425 342.397,399.700 342.394 C 400.033 342.390,400.000 342.258,399.600 342.000 C 399.200 341.742,399.167 341.610,399.500 341.606 C 399.891 341.601,400.000 338.169,400.000 325.795 C 400.000 313.847,399.878 309.792,399.500 309.182 C 399.096 308.530,399.102 308.312,399.529 308.046 C 400.058 307.717,400.012 306.046,399.437 304.743 C 399.278 304.382,399.237 302.410,399.348 300.362 C 399.458 298.313,399.402 296.873,399.224 297.161 C 399.017 297.497,398.809 297.538,398.646 297.275 C 398.507 297.049,398.654 296.604,398.973 296.285 C 399.335 295.922,399.457 295.347,399.299 294.752 L 399.045 293.800 398.762 294.800 C 398.467 295.844,398.211 293.404,398.390 291.255 C 398.434 290.729,398.297 290.417,398.080 290.550 C 397.432 290.951,397.250 288.807,397.880 288.177 C 398.197 287.860,398.294 287.600,398.095 287.600 C 397.896 287.600,397.716 287.375,397.695 287.100 C 397.523 284.845,397.206 283.413,396.894 283.480 C 396.685 283.524,396.559 282.177,396.605 280.390 C 396.651 278.648,396.553 277.306,396.387 277.408 C 396.048 277.618,395.540 275.982,395.410 274.262 C 395.363 273.636,395.071 272.958,394.762 272.755 C 394.294 272.447,394.317 272.317,394.900 271.973 C 395.285 271.746,395.600 271.379,395.600 271.157 C 395.600 270.934,395.429 270.858,395.220 270.988 C 395.011 271.117,394.645 270.857,394.406 270.411 C 394.167 269.965,394.113 269.600,394.286 269.599 C 394.459 269.599,394.645 268.969,394.700 268.199 C 394.767 267.254,394.638 266.833,394.300 266.900 C 393.977 266.965,393.756 266.395,393.677 265.291 C 393.609 264.351,393.422 263.663,393.262 263.762 C 393.102 263.860,392.971 263.594,392.971 263.171 C 392.971 262.747,393.158 262.394,393.386 262.387 C 393.614 262.380,393.511 262.155,393.158 261.886 C 392.772 261.591,392.547 260.897,392.592 260.137 C 392.646 259.231,392.517 258.934,392.133 259.081 C 391.750 259.228,391.588 258.853,391.557 257.743 C 391.470 254.604,391.388 254.108,390.851 253.461 C 390.549 253.098,390.459 252.797,390.651 252.794 C 390.843 252.791,390.730 252.597,390.400 252.363 C 389.993 252.075,389.947 251.878,390.258 251.750 C 390.822 251.518,390.056 249.203,389.412 249.194 C 389.186 249.191,389.269 249.018,389.598 248.810 C 390.112 248.485,390.084 248.341,389.398 247.786 C 388.959 247.431,388.825 247.255,389.100 247.394 C 389.375 247.533,389.600 247.457,389.600 247.224 C 389.600 246.991,389.370 246.800,389.089 246.800 C 388.745 246.800,388.606 246.282,388.666 245.220 C 388.737 243.936,388.600 243.591,387.937 243.380 C 387.342 243.191,387.239 243.001,387.560 242.680 C 388.192 242.048,388.102 241.586,387.400 241.855 C 386.952 242.027,386.785 241.770,386.740 240.843 C 386.639 238.743,386.611 238.608,386.233 238.335 C 386.031 238.189,385.831 237.239,385.789 236.224 C 385.747 235.209,385.574 234.248,385.406 234.089 C 385.238 233.930,385.232 234.228,385.393 234.750 C 385.594 235.402,385.547 235.614,385.243 235.426 C 384.999 235.276,384.800 234.708,384.800 234.164 C 384.800 233.620,384.571 233.087,384.291 232.980 C 383.979 232.860,383.801 232.131,383.830 231.092 C 383.856 230.161,383.631 228.995,383.330 228.500 C 383.028 228.005,382.921 227.589,383.091 227.575 C 383.261 227.561,382.954 227.371,382.410 227.154 C 381.670 226.859,381.554 226.675,381.952 226.429 C 382.331 226.195,382.356 226.020,382.036 225.822 C 381.789 225.670,381.691 225.377,381.817 225.172 C 381.944 224.968,381.835 224.800,381.575 224.800 C 381.227 224.800,381.236 224.638,381.610 224.187 C 382.107 223.589,381.252 222.451,380.276 222.413 C 380.098 222.406,380.064 222.220,380.200 222.000 C 380.336 221.780,380.307 221.375,380.135 221.100 C 379.964 220.825,379.813 220.115,379.800 219.522 C 379.788 218.929,379.619 218.299,379.425 218.122 C 379.227 217.942,379.199 218.020,379.359 218.300 C 379.518 218.575,379.478 218.800,379.270 218.800 C 378.792 218.800,378.329 217.101,378.729 216.814 C 378.894 216.696,378.807 215.970,378.537 215.200 C 378.204 214.252,378.029 214.058,377.994 214.600 L 377.944 215.400 377.626 214.600 C 377.433 214.113,377.484 213.685,377.755 213.506 C 378.000 213.344,378.065 213.187,377.900 213.156 C 377.735 213.125,377.420 213.055,377.200 213.000 C 376.980 212.945,376.665 212.875,376.500 212.844 C 376.335 212.813,376.470 212.613,376.800 212.400 C 377.333 212.055,377.333 212.011,376.800 212.000 C 376.267 211.989,376.267 211.941,376.800 211.563 C 377.252 211.244,377.276 211.089,376.900 210.936 C 376.625 210.825,376.400 210.468,376.400 210.143 C 376.400 209.818,376.220 209.664,376.000 209.800 C 375.586 210.056,375.561 210.001,375.404 208.507 C 375.352 208.016,375.060 207.307,374.755 206.930 C 374.385 206.475,374.367 206.347,374.700 206.547 C 374.975 206.712,375.200 206.657,375.200 206.424 C 375.200 206.191,374.909 206.000,374.553 206.000 C 374.104 206.000,373.970 205.756,374.116 205.200 C 374.231 204.761,374.134 204.283,373.901 204.139 C 373.633 203.973,373.596 204.070,373.800 204.400 C 374.014 204.746,373.967 204.827,373.662 204.638 C 373.408 204.481,373.200 204.093,373.200 203.776 C 373.200 203.459,373.009 203.200,372.776 203.200 C 372.543 203.200,372.464 203.020,372.600 202.800 C 372.736 202.580,372.675 202.400,372.463 202.400 C 372.252 202.400,372.124 201.815,372.179 201.100 C 372.233 200.385,372.035 199.445,371.739 199.011 C 371.097 198.071,371.028 198.496,371.622 199.726 C 372.030 200.570,372.023 200.574,371.422 199.824 C 371.080 199.396,370.800 198.631,370.800 198.124 C 370.800 197.616,370.632 197.200,370.426 197.200 C 370.221 197.200,370.132 196.763,370.229 196.228 C 370.362 195.498,370.192 195.188,369.550 194.984 C 368.885 194.773,368.817 194.637,369.244 194.373 C 369.709 194.085,369.708 193.954,369.238 193.517 C 368.823 193.131,368.754 193.126,368.965 193.500 C 369.120 193.775,369.057 194.000,368.824 194.000 C 368.591 194.000,368.400 193.640,368.400 193.200 C 368.400 192.760,368.209 192.400,367.976 192.400 C 367.743 192.400,367.656 192.232,367.783 192.028 C 367.909 191.823,367.822 191.537,367.587 191.392 C 367.353 191.248,367.215 190.740,367.281 190.265 C 367.361 189.682,367.107 189.271,366.500 189.005 C 365.674 188.643,365.388 187.853,365.580 186.459 C 365.731 185.355,365.202 184.557,364.752 185.211 C 364.445 185.659,364.408 185.584,364.601 184.900 C 364.796 184.205,364.688 183.999,364.127 183.994 C 363.523 183.989,363.499 183.925,363.989 183.615 C 364.493 183.296,364.479 183.205,363.891 182.980 C 363.514 182.835,363.294 182.571,363.404 182.394 C 363.792 181.765,363.129 180.675,362.718 181.266 C 362.465 181.631,362.428 181.515,362.601 180.900 C 362.756 180.350,362.679 180.000,362.403 180.000 C 362.156 180.000,362.050 179.843,362.169 179.650 C 362.288 179.458,361.944 178.970,361.406 178.566 C 360.708 178.042,360.567 177.742,360.914 177.521 C 361.295 177.279,361.295 177.211,360.914 177.206 C 360.647 177.203,360.212 176.795,359.949 176.300 C 359.541 175.534,359.556 175.460,360.053 175.800 C 360.375 176.020,360.294 175.885,359.875 175.500 C 359.455 175.115,359.234 174.800,359.384 174.800 C 359.534 174.800,359.368 174.511,359.015 174.158 C 358.621 173.764,358.465 173.184,358.613 172.658 C 358.803 171.977,358.766 171.924,358.432 172.400 C 358.047 172.950,357.904 172.710,358.036 171.736 C 358.056 171.591,357.786 171.312,357.436 171.116 C 357.086 170.920,356.800 170.586,356.800 170.372 C 356.800 170.159,356.320 169.223,355.734 168.292 C 355.104 167.291,354.944 166.827,355.343 167.157 C 355.933 167.642,355.986 167.630,355.766 167.057 C 355.529 166.438,355.053 166.222,354.249 166.370 C 354.056 166.405,353.994 166.066,354.112 165.616 C 354.232 165.155,354.160 164.901,353.947 165.033 C 353.722 165.172,353.674 164.846,353.827 164.234 C 353.995 163.564,353.922 163.200,353.620 163.200 C 353.363 163.200,353.281 163.408,353.438 163.662 C 353.616 163.950,353.548 164.015,353.255 163.834 C 352.998 163.675,352.894 163.372,353.024 163.161 C 353.154 162.950,352.842 162.429,352.331 162.002 C 351.819 161.576,351.569 161.221,351.776 161.213 C 351.984 161.206,351.804 160.915,351.376 160.567 C 350.800 160.097,350.766 159.986,351.247 160.134 C 351.795 160.304,351.826 160.192,351.451 159.397 C 351.096 158.643,350.896 158.552,350.430 158.930 C 349.957 159.314,349.898 159.272,350.113 158.700 C 350.282 158.249,350.182 158.000,349.834 158.000 C 349.537 158.000,349.203 157.653,349.092 157.230 C 348.940 156.650,349.052 156.515,349.545 156.684 C 350.010 156.843,349.968 156.722,349.400 156.267 C 348.960 155.914,348.770 155.620,348.978 155.613 C 349.187 155.606,348.761 154.986,348.033 154.235 C 347.306 153.484,346.832 152.672,346.981 152.431 C 347.288 151.934,346.453 151.000,345.700 151.000 C 345.425 151.000,345.245 150.820,345.300 150.600 C 345.355 150.380,345.548 150.249,345.730 150.310 C 345.911 150.370,345.944 150.232,345.802 150.003 C 345.661 149.774,345.347 149.709,345.104 149.859 C 344.823 150.033,344.754 149.896,344.915 149.478 C 345.052 149.119,344.965 148.702,344.721 148.551 C 344.462 148.391,344.388 148.458,344.545 148.711 C 344.692 148.949,344.643 149.250,344.435 149.378 C 344.218 149.513,344.123 149.092,344.211 148.390 C 344.338 147.387,344.189 147.100,343.383 146.794 C 342.842 146.588,342.400 146.225,342.400 145.986 C 342.400 145.748,342.580 145.664,342.800 145.800 C 343.020 145.936,343.200 145.869,343.200 145.651 C 343.200 145.434,342.795 145.198,342.300 145.128 C 341.785 145.055,341.398 144.718,341.394 144.341 C 341.391 143.978,340.947 143.324,340.407 142.886 C 339.525 142.172,339.485 142.019,340.013 141.371 C 340.539 140.725,340.529 140.677,339.913 140.908 C 339.126 141.202,338.533 140.577,339.298 140.259 C 339.653 140.111,339.566 139.863,339.000 139.408 C 338.560 139.055,338.200 138.614,338.200 138.428 C 338.200 138.242,337.750 137.716,337.200 137.258 C 336.650 136.801,336.425 136.421,336.700 136.413 C 336.975 136.406,337.200 136.610,337.200 136.867 C 337.200 137.123,337.335 137.199,337.499 137.034 C 337.664 136.869,337.439 136.472,336.999 136.150 C 336.560 135.829,336.200 135.348,336.200 135.083 C 336.200 134.817,335.975 134.578,335.700 134.550 C 335.425 134.523,335.009 134.477,334.776 134.450 C 334.543 134.422,334.466 134.217,334.604 133.993 C 334.742 133.770,335.051 133.708,335.289 133.855 C 335.551 134.017,335.608 133.937,335.434 133.655 C 335.275 133.398,334.977 133.291,334.772 133.417 C 334.568 133.544,334.378 133.457,334.350 133.224 C 334.322 132.991,334.278 132.605,334.250 132.368 C 334.223 132.130,333.871 131.695,333.470 131.401 C 332.820 130.926,332.543 130.290,332.424 129.000 C 332.404 128.780,332.213 128.870,332.000 129.200 C 331.655 129.733,331.606 129.733,331.560 129.200 C 331.531 128.870,331.483 128.330,331.454 128.000 C 331.424 127.670,331.181 127.443,330.914 127.495 C 330.632 127.550,330.525 127.339,330.659 126.991 C 330.829 126.546,330.705 126.462,330.179 126.663 C 329.725 126.838,329.564 126.782,329.732 126.510 C 329.877 126.276,329.726 125.981,329.398 125.854 C 329.069 125.728,328.800 125.429,328.800 125.189 C 328.800 124.949,329.008 124.881,329.262 125.038 C 329.550 125.216,329.615 125.148,329.434 124.855 C 329.275 124.598,328.947 124.509,328.704 124.659 C 328.424 124.832,328.354 124.697,328.512 124.286 C 328.694 123.811,328.589 123.706,328.114 123.888 C 327.713 124.042,327.569 123.974,327.732 123.710 C 327.877 123.476,327.726 123.181,327.398 123.054 C 327.069 122.928,326.800 122.350,326.800 121.770 C 326.800 120.976,326.645 120.774,326.174 120.955 C 325.704 121.135,325.607 121.010,325.783 120.454 C 325.918 120.027,325.760 119.498,325.409 119.207 C 325.045 118.906,324.800 118.869,324.800 119.118 C 324.800 119.346,324.985 119.625,325.210 119.737 C 325.436 119.849,325.391 119.893,325.110 119.835 C 324.830 119.777,324.596 119.324,324.590 118.827 C 324.584 118.288,324.182 117.704,323.590 117.376 C 323.046 117.075,322.763 116.822,322.962 116.814 C 323.161 116.806,323.026 116.470,322.661 116.068 C 322.297 115.665,322.134 115.186,322.299 115.003 C 322.465 114.821,322.399 114.786,322.153 114.926 C 321.332 115.395,320.146 113.593,320.031 111.700 C 320.014 111.425,319.775 111.245,319.500 111.300 C 319.205 111.359,319.048 111.072,319.117 110.600 C 319.211 109.956,319.156 109.915,318.838 110.388 C 318.367 111.091,317.980 110.798,317.896 109.673 C 317.862 109.223,317.712 108.931,317.562 109.023 C 317.413 109.116,317.068 108.923,316.796 108.596 C 316.453 108.182,316.439 108.000,316.751 108.000 C 316.998 108.000,317.200 107.801,317.200 107.557 C 317.200 107.314,316.921 107.222,316.579 107.353 C 316.174 107.508,316.058 107.430,316.245 107.127 C 316.429 106.829,316.320 106.745,315.937 106.892 C 315.362 107.113,314.846 106.550,313.728 104.487 C 313.456 103.985,313.406 103.680,313.617 103.810 C 314.199 104.170,314.075 103.617,313.429 102.971 C 313.114 102.657,312.574 102.400,312.229 102.400 C 311.649 102.400,311.411 101.915,311.569 101.051 C 311.604 100.859,311.400 100.789,311.116 100.895 C 310.817 101.007,310.325 100.518,309.945 99.732 C 309.457 98.722,309.431 98.494,309.845 98.837 C 310.238 99.163,310.400 99.169,310.400 98.857 C 310.400 98.614,309.951 98.303,309.403 98.165 C 308.854 98.027,308.490 97.778,308.593 97.611 C 308.697 97.444,308.430 96.989,308.000 96.600 C 307.570 96.211,307.303 95.758,307.405 95.592 C 307.625 95.236,306.754 94.439,306.249 94.534 C 306.056 94.570,305.606 94.158,305.249 93.617 C 304.746 92.855,304.729 92.713,305.175 92.987 C 305.492 93.181,305.146 92.499,304.407 91.470 C 303.177 89.757,302.336 88.906,303.053 90.100 C 303.293 90.499,303.229 90.500,302.740 90.103 C 302.403 89.830,301.969 89.740,301.776 89.903 C 301.584 90.067,301.671 89.881,301.970 89.491 C 302.449 88.865,302.429 88.814,301.792 89.058 C 301.207 89.283,301.113 89.177,301.290 88.497 C 301.458 87.857,301.362 87.716,300.885 87.899 C 300.428 88.075,300.329 87.962,300.514 87.480 C 300.669 87.077,300.484 86.624,300.037 86.311 C 299.636 86.030,299.317 85.710,299.330 85.600 C 299.383 85.119,298.539 84.117,297.875 83.873 C 297.476 83.726,297.232 83.469,297.333 83.303 C 297.514 83.003,296.703 82.069,296.108 81.892 C 295.939 81.841,295.845 81.665,295.900 81.500 C 295.955 81.335,295.865 81.221,295.700 81.247 C 294.845 81.382,294.449 81.137,294.655 80.600 C 294.801 80.220,294.650 80.000,294.243 80.000 C 293.889 80.000,293.600 79.826,293.600 79.613 C 293.600 79.399,293.892 79.337,294.249 79.474 C 294.790 79.682,294.776 79.581,294.160 78.861 C 293.754 78.388,293.121 78.000,292.754 78.000 C 292.063 78.000,291.446 76.973,291.796 76.406 C 291.906 76.229,291.747 75.988,291.443 75.872 C 291.050 75.721,290.942 75.911,291.067 76.530 C 291.207 77.217,290.016 75.181,289.821 74.400 C 289.674 73.810,288.555 72.400,288.234 72.400 C 288.029 72.400,288.283 72.850,288.800 73.400 C 289.317 73.950,289.538 74.400,289.292 74.400 C 288.715 74.400,287.570 72.772,287.840 72.336 C 287.953 72.152,287.766 71.601,287.423 71.112 C 287.080 70.622,286.800 70.406,286.800 70.631 C 286.800 70.856,287.025 71.277,287.300 71.567 C 287.713 72.002,287.654 72.006,286.959 71.588 C 286.496 71.309,285.912 70.513,285.661 69.819 C 285.410 69.124,284.799 68.377,284.302 68.157 C 283.806 67.938,283.625 67.807,283.900 67.866 C 284.798 68.061,284.425 67.590,283.361 67.185 C 282.790 66.968,282.231 66.439,282.118 66.009 C 282.006 65.580,281.286 64.858,280.518 64.405 C 279.580 63.851,279.199 63.380,279.356 62.970 C 279.485 62.633,279.437 62.454,279.249 62.570 C 279.061 62.686,278.568 62.394,278.153 61.922 C 277.739 61.449,277.625 61.194,277.900 61.355 C 278.175 61.516,278.400 61.457,278.400 61.224 C 278.400 60.991,277.928 60.800,277.351 60.800 C 276.415 60.800,276.360 60.725,276.838 60.100 C 277.133 59.715,277.229 59.520,277.053 59.667 C 276.547 60.089,275.248 58.752,275.473 58.041 C 275.616 57.588,275.571 57.544,275.319 57.893 C 274.969 58.376,272.200 55.926,272.200 55.133 C 272.200 54.955,271.504 54.336,270.652 53.758 C 269.619 53.056,269.265 52.607,269.586 52.409 C 269.909 52.209,269.775 52.035,269.182 51.879 C 268.629 51.735,268.378 51.435,268.513 51.083 C 268.760 50.438,267.587 49.271,266.917 49.494 C 266.672 49.576,266.230 49.334,265.936 48.957 C 265.641 48.580,264.652 47.510,263.737 46.578 C 262.451 45.269,262.180 44.772,262.537 44.384 C 262.897 43.994,262.851 43.935,262.329 44.117 C 261.960 44.247,261.443 44.093,261.180 43.776 C 260.917 43.459,260.820 43.200,260.965 43.200 C 261.109 43.200,260.675 42.660,260.000 42.000 C 259.325 41.340,258.599 40.800,258.386 40.800 C 258.034 40.800,257.841 40.234,257.948 39.514 C 257.971 39.357,257.723 39.332,257.395 39.457 C 257.015 39.603,256.800 39.445,256.800 39.019 C 256.800 38.653,256.665 38.435,256.500 38.534 C 256.073 38.793,255.192 37.748,255.524 37.378 C 255.676 37.210,255.602 37.184,255.361 37.322 C 254.662 37.720,252.989 35.980,253.661 35.554 C 254.074 35.292,254.031 35.211,253.476 35.206 C 253.032 35.202,252.863 35.022,253.038 34.738 C 253.218 34.447,253.148 34.385,252.847 34.571 C 252.196 34.974,249.817 32.620,250.218 31.970 C 250.411 31.659,250.359 31.578,250.076 31.753 C 249.525 32.094,245.295 27.916,245.517 27.250 C 245.604 26.989,245.523 26.802,245.337 26.835 C 244.378 27.005,243.934 26.749,244.162 26.155 C 244.323 25.734,244.234 25.578,243.902 25.705 C 243.296 25.938,242.331 25.015,242.724 24.579 C 242.876 24.410,242.691 24.383,242.313 24.519 C 241.935 24.654,241.502 24.565,241.351 24.321 C 241.185 24.052,241.259 23.989,241.538 24.162 C 241.792 24.319,242.000 24.257,242.000 24.024 C 242.000 23.791,241.621 23.600,241.157 23.600 C 240.575 23.600,240.385 23.416,240.543 23.005 C 240.668 22.677,240.643 22.429,240.486 22.452 C 239.641 22.578,239.294 22.325,239.455 21.700 C 239.565 21.269,239.282 20.783,238.717 20.436 C 237.877 19.919,237.846 19.927,238.349 20.536 C 238.821 21.107,238.807 21.200,238.249 21.200 C 237.892 21.200,237.578 20.930,237.550 20.600 C 237.449 19.388,237.389 19.230,236.841 18.720 C 236.430 18.337,236.357 18.331,236.565 18.700 C 236.720 18.975,236.747 19.200,236.624 19.200 C 236.229 19.200,234.800 17.615,234.800 17.176 C 234.800 16.943,234.592 16.881,234.338 17.038 C 234.051 17.216,233.985 17.148,234.164 16.859 C 234.322 16.603,234.182 16.125,233.854 15.797 C 233.128 15.071,232.645 15.013,233.041 15.700 C 233.199 15.975,232.850 15.764,232.265 15.230 C 231.679 14.697,231.200 14.050,231.200 13.792 C 231.200 13.096,229.715 11.882,229.230 12.182 C 228.966 12.344,228.908 12.185,229.073 11.755 C 229.236 11.329,229.178 11.166,228.920 11.326 C 228.691 11.467,227.986 11.115,227.352 10.544 C 226.718 9.973,226.453 9.645,226.762 9.815 C 227.138 10.022,227.228 9.969,227.034 9.655 C 226.875 9.398,226.614 9.268,226.453 9.367 C 225.971 9.665,225.155 8.971,225.032 8.160 C 224.949 7.612,224.655 7.439,223.977 7.539 C 223.203 7.653,223.121 7.577,223.510 7.108 C 223.896 6.643,223.819 6.544,223.092 6.569 C 222.574 6.587,222.177 6.348,222.146 6.000 C 222.117 5.670,222.072 5.175,222.046 4.900 C 222.021 4.625,221.826 4.400,221.613 4.400 C 221.399 4.400,221.341 4.701,221.482 5.069 C 221.669 5.558,221.503 5.503,220.869 4.869 C 220.391 4.391,220.000 3.730,220.000 3.400 C 220.000 2.774,219.633 2.659,218.055 2.790 C 217.463 2.840,217.210 2.707,217.379 2.435 C 217.526 2.196,217.457 2.000,217.224 2.000 C 216.991 2.000,216.845 1.797,216.900 1.550 C 216.955 1.302,216.750 1.009,216.444 0.898 C 216.107 0.775,215.997 0.872,216.165 1.144 C 216.341 1.428,216.216 1.504,215.823 1.354 C 215.483 1.223,215.310 0.946,215.439 0.737 C 215.581 0.507,214.247 0.387,212.045 0.431 C 210.050 0.472,208.514 0.661,208.632 0.852 M212.723 103.983 C 212.673 104.633,212.545 105.078,212.438 104.971 C 212.144 104.677,212.022 103.489,212.248 103.123 C 212.636 102.495,212.812 102.814,212.723 103.983 M380.533 221.371 C 380.785 221.905,381.055 222.278,381.132 222.201 C 381.381 221.953,380.758 220.400,380.411 220.400 C 380.226 220.400,380.281 220.837,380.533 221.371 M15.600 282.357 C 15.600 282.554,15.330 282.818,15.000 282.945 C 14.390 283.179,14.181 282.753,14.667 282.267 C 15.049 281.884,15.600 281.938,15.600 282.357 M8.290 304.000 C 8.224 304.881,7.600 305.122,7.600 304.267 C 7.600 303.789,7.955 303.200,8.242 303.200 C 8.301 303.200,8.323 303.560,8.290 304.000 M3.248 326.687 C 2.917 327.269,2.867 327.179,2.976 326.200 C 3.149 324.640,3.253 324.449,3.473 325.287 C 3.573 325.666,3.471 326.296,3.248 326.687 M354.681 450.237 C 353.883 451.307,354.123 451.535,355.061 450.596 C 355.393 450.264,355.605 449.831,355.532 449.633 C 355.459 449.436,355.077 449.707,354.681 450.237 " stroke="none" fill="#fc745c" fill-rule="evenodd"></path><path id="path1" d="" stroke="none" fill="#100745c" fill-rule="evenodd"></path><path id="path2" d="" stroke="none" fill="#100745c" fill-rule="evenodd"></path><path id="path3" d="" stroke="none" fill="#100745c" fill-rule="evenodd"></path><path id="path4" d="" stroke="none" fill="#100745c" fill-rule="evenodd"></path></g></svg>